<svg width="24" height="24" viewBox="0 0 24 24" fill="none" xmlns="http://www.w3.org/2000/svg">
<path opacity="0.4" d="M16.1871 2H7.81291C4.17109 2 2 4.17109 2 7.81291V16.1871C2 19.8289 4.17109 22 7.81291 22H16.1871C19.8289 22 22 19.8289 22 16.1871V7.81291C22 4.17109 19.8289 2 16.1871 2Z" fill="#8E8F90"/>
<path d="M19.3486 8.27313C19.3107 8.18379 19.2564 8.10235 19.1885 8.03301L17.3876 6.23211C17.2453 6.09957 17.0572 6.02741 16.8628 6.03084C16.6684 6.03427 16.4829 6.11302 16.3455 6.2505C16.208 6.38798 16.1292 6.57346 16.1258 6.76786C16.1224 6.96226 16.1945 7.1504 16.3271 7.29264L16.8473 7.8129H16.6973C15.7711 7.81698 14.8621 8.06281 14.0602 8.52608C13.2582 8.98934 12.5912 9.65398 12.125 10.4542C11.6618 9.65349 10.9968 8.98819 10.1963 8.52473C9.39577 8.06126 8.4877 7.81582 7.56268 7.8129H7.13247L7.65273 7.29264C7.72645 7.22395 7.78558 7.14111 7.8266 7.04906C7.86761 6.95702 7.88966 6.85765 7.89144 6.7569C7.89322 6.65615 7.87468 6.55607 7.83694 6.46263C7.7992 6.3692 7.74303 6.28432 7.67178 6.21307C7.60052 6.14181 7.51564 6.08564 7.42221 6.0479C7.32878 6.01016 7.2287 5.99163 7.12794 5.9934C7.02719 5.99518 6.92783 6.01723 6.83578 6.05825C6.74374 6.09926 6.66089 6.15839 6.5922 6.23211L4.7913 8.03301C4.65175 8.17422 4.57349 8.36475 4.57349 8.56328C4.57349 8.76181 4.65175 8.95234 4.7913 9.09354L6.5922 10.8944C6.66173 10.9643 6.74437 11.0197 6.83536 11.0575C6.92636 11.0953 7.02393 11.1147 7.12246 11.1147C7.221 11.1147 7.31856 11.0953 7.40956 11.0575C7.50056 11.0197 7.58319 10.9643 7.65273 10.8944C7.79204 10.7531 7.87013 10.5626 7.87013 10.3642C7.87013 10.1657 7.79204 9.97525 7.65273 9.83391L7.13247 9.31366H7.55268C8.56325 9.31498 9.53206 9.71701 10.2466 10.4316C10.9612 11.1462 11.3633 12.115 11.3646 13.1256V17.2576C11.3646 17.4566 11.4436 17.6475 11.5844 17.7882C11.7251 17.9289 11.9159 18.008 12.115 18.008C12.314 18.008 12.5048 17.9289 12.6456 17.7882C12.7863 17.6475 12.8653 17.4566 12.8653 17.2576V13.1256C12.8675 12.1135 13.2711 11.1436 13.9877 10.4289C14.7043 9.71424 15.6752 9.31312 16.6872 9.31366H16.8373L16.3171 9.83391C16.1777 9.97525 16.0997 10.1657 16.0997 10.3642C16.0997 10.5626 16.1777 10.7531 16.3171 10.8944C16.3866 10.9643 16.4692 11.0197 16.5602 11.0575C16.6512 11.0953 16.7488 11.1147 16.8473 11.1147C16.9459 11.1147 17.0434 11.0953 17.1344 11.0575C17.2254 11.0197 17.3081 10.9643 17.3776 10.8944L19.1785 9.09354C19.2464 9.02421 19.3007 8.94277 19.3386 8.85342C19.3821 8.76319 19.4056 8.66457 19.4073 8.56438C19.409 8.46419 19.389 8.36482 19.3486 8.27313Z" fill="#171717"/>
</svg>
