<svg width="24" height="24" viewBox="0 0 24 24" fill="none" xmlns="http://www.w3.org/2000/svg">
<path d="M16.2109 21.9996C15.9757 22.0004 15.7427 21.9554 15.5255 21.8671C15.3083 21.7789 15.1112 21.6491 14.9458 21.4854L6.5193 13.2374C6.18657 12.9076 6 12.4627 6 11.9992C6 11.5356 6.18657 11.0907 6.5193 10.7609L14.9458 2.51291C15.2814 2.1845 15.7364 2 16.2109 2C16.6854 2 17.1405 2.1845 17.476 2.51291C17.8115 2.84132 18 3.28674 18 3.75118C18 4.21562 17.8115 4.66104 17.476 4.98944L10.316 11.9977L17.4774 19.0074C17.8102 19.3373 17.9967 19.7822 17.9967 20.2457C17.9967 20.7093 17.8102 21.1541 17.4774 21.484C17.3147 21.6516 17.118 21.7841 16.8999 21.8729C16.6818 21.9617 16.4471 22.0048 16.2109 21.9996Z" fill="black"/>
</svg>
