<svg width="24" height="24" viewBox="0 0 24 24" fill="none" xmlns="http://www.w3.org/2000/svg">
<path d="M15.6809 5.36268V5.86267H14.6814V5.36268C14.7226 4.96416 14.6492 4.56216 14.47 4.2039C14.2907 3.84565 14.013 3.54601 13.6694 3.3402C13.3402 3.12108 12.9536 3.00417 12.5581 3.00417C12.1627 3.00417 11.7761 3.12108 11.4468 3.3402C11.0972 3.54285 10.812 3.84026 10.6241 4.19811C10.4362 4.55597 10.3533 4.95969 10.3849 5.36268V5.86267H9.32166V5.36268C9.30243 4.78298 9.4369 4.20851 9.71142 3.69763C9.98593 3.18675 10.3907 2.75767 10.8846 2.45396C11.3725 2.15704 11.9327 2 12.5038 2C13.0749 2 13.635 2.15704 14.1229 2.45396C14.6159 2.75829 15.0197 3.18764 15.2933 3.69848C15.5669 4.20931 15.7006 4.78346 15.6809 5.36268ZM11.3506 15.1126C11.3506 13.6463 10.6122 12.4089 9.73645 12.4089C8.86065 12.4089 8.12728 13.6463 8.12728 15.1126C8.12728 16.5788 8.86564 17.8163 9.74144 17.8163C10.6172 17.8163 11.3506 16.5813 11.3506 15.1151V15.1126ZM18.1771 5.86267H15.6784V8.78139C15.6784 8.89278 15.6342 8.99961 15.5554 9.07837C15.4767 9.15714 15.3699 9.20139 15.2586 9.20139C15.1473 9.20139 15.0405 9.15714 14.9618 9.07837C14.883 8.99961 14.8388 8.89278 14.8388 8.78139L14.6726 5.86267H10.3799L10.1562 8.78139C10.1562 8.89278 10.112 8.99961 10.0333 9.07837C9.95455 9.15714 9.84778 9.20139 9.73645 9.20139C9.62511 9.20139 9.51834 9.15714 9.43961 9.07837C9.36089 8.99961 9.31666 8.89278 9.31666 8.78139V5.86267H6.81795C6.32975 5.86893 5.86401 6.06891 5.52313 6.41863C5.18225 6.76836 4.99414 7.2392 5.00014 7.72766V20.1025C4.99513 20.5907 5.18357 21.061 5.52424 21.4105C5.86491 21.76 6.33006 21.9603 6.81795 21.9675H9.31666V18.6313C8.6453 18.3418 8.08528 17.8432 7.71993 17.2096C7.35459 16.5761 7.20343 15.8415 7.28896 15.1151C7.28896 13.1063 8.3659 11.5501 9.74269 11.5501C11.1195 11.5501 12.1964 13.1176 12.1964 15.1151C12.2789 15.8425 12.1251 16.5772 11.7579 17.2104C11.3907 17.8436 10.8296 18.3418 10.1575 18.6313V21.9637H14.8438V18.6313C14.1721 18.3428 13.6113 17.8452 13.2449 17.2124C12.8784 16.5796 12.7259 15.8453 12.8099 15.1188V12.1689C12.8099 12.0575 12.8541 11.9506 12.9328 11.8719C13.0115 11.7931 13.1183 11.7489 13.2296 11.7489C13.341 11.7489 13.4478 11.7931 13.5265 11.8719C13.6052 11.9506 13.6494 12.0575 13.6494 12.1689V15.1163C13.6036 15.6169 13.6898 16.1208 13.8994 16.5776C14.109 17.0345 14.4346 17.4284 14.8438 17.72V12.1676C14.8438 12.0562 14.888 11.9494 14.9668 11.8706C15.0455 11.7919 15.1523 11.7476 15.2636 11.7476C15.3749 11.7476 15.4817 11.7919 15.5604 11.8706C15.6392 11.9494 15.6834 12.0562 15.6834 12.1676V17.7188C16.0917 17.4263 16.4166 17.0322 16.6261 16.5756C16.8355 16.1189 16.9223 15.6155 16.8778 15.1151V12.1676C16.8778 12.0562 16.922 11.9494 17.0007 11.8706C17.0794 11.7919 17.1862 11.7476 17.2975 11.7476C17.4089 11.7476 17.5157 11.7919 17.5944 11.8706C17.6731 11.9494 17.7173 12.0562 17.7173 12.1676V15.1151C17.8018 15.8421 17.6494 16.577 17.283 17.2105C16.9165 17.844 16.3555 18.3423 15.6834 18.6313V21.9637H18.1821C18.67 21.9565 19.1351 21.7562 19.4758 21.4067C19.8165 21.0572 20.0049 20.5869 19.9999 20.0988V7.7239C20.0024 7.48142 19.957 7.24084 19.8663 7.01594C19.7757 6.79105 19.6415 6.58627 19.4716 6.41336C19.3017 6.24044 19.0993 6.10279 18.8761 6.00829C18.6529 5.91379 18.4132 5.86431 18.1708 5.86267H18.1771Z" fill="black"/>
<path d="M16.9327 10.0189H7.83618C7.14618 10.0189 6.58682 10.5785 6.58682 11.2689V20.75C6.58682 21.4404 7.14618 22 7.83618 22H16.9327C17.6227 22 18.1821 21.4404 18.1821 20.75V11.2689C18.1821 10.5785 17.6227 10.0189 16.9327 10.0189Z" fill="black"/>
</svg>
