<svg width="24" height="24" viewBox="0 0 24 24" fill="none" xmlns="http://www.w3.org/2000/svg">
<mask id="mask0_603_158" style="mask-type:luminance" maskUnits="userSpaceOnUse" x="2" y="2" width="20" height="20">
<path d="M22 2H2V22H22V2Z" fill="white"/>
</mask>
<g mask="url(#mask0_603_158)">
<path opacity="0.4" fill-rule="evenodd" clip-rule="evenodd" d="M16.7141 10.49V17.721H20.5301V10.489L16.7141 10.49Z" fill="#8E8F90"/>
<path opacity="0.4" fill-rule="evenodd" clip-rule="evenodd" d="M10.1089 10.49V17.721H13.9199V10.49H10.1089Z" fill="#8E8F90"/>
<path opacity="0.4" fill-rule="evenodd" clip-rule="evenodd" d="M3.50488 10.489V17.721H7.31588V10.49L3.50488 10.489Z" fill="#8E8F90"/>
<path fill-rule="evenodd" clip-rule="evenodd" d="M11.137 2.328C11.4031 2.17139 11.7062 2.08881 12.015 2.08881C12.3238 2.08881 12.6269 2.17139 12.893 2.328L12.922 2.346L21.379 7.884C21.6513 8.05204 21.8557 8.31065 21.9563 8.61441C22.0569 8.91817 22.0472 9.24766 21.929 9.545C21.8088 9.83033 21.6051 10.0727 21.3448 10.2402C21.0844 10.4078 20.7795 10.4928 20.47 10.484H3.559C3.25007 10.4932 2.94556 10.4089 2.68527 10.2423C2.42497 10.0757 2.22099 9.8344 2.1 9.55C1.98179 9.25266 1.97213 8.92317 2.07272 8.61941C2.1733 8.31565 2.37769 8.05704 2.65 7.889L11.108 2.351L11.137 2.328ZM2 18.993C2.02267 18.6352 2.18575 18.3007 2.45374 18.0625C2.72174 17.8243 3.07296 17.7016 3.431 17.721H20.6C20.958 17.7016 21.3093 17.8243 21.5773 18.0625C21.8453 18.3007 22.0083 18.6352 22.031 18.993V20.664C22.0081 21.0217 21.8449 21.3558 21.5769 21.5938C21.309 21.8318 20.9579 21.9544 20.6 21.935H3.431C3.07296 21.9544 2.72174 21.8317 2.45374 21.5935C2.18575 21.3553 2.02267 21.0209 2 20.663V18.993Z" fill="black"/>
</g>
</svg>
