<svg width="24" height="24" viewBox="0 0 24 24" fill="none" xmlns="http://www.w3.org/2000/svg">
<path opacity="0.4" d="M5.99988 8C5.99988 4.68629 8.68617 2 11.9999 2C15.3136 2 17.9999 4.68629 17.9999 8V9.83095C17.9999 11.2503 18.3856 12.6429 19.1159 13.8599L19.6693 14.7823C20.0363 15.3941 20.2199 15.7 20.2324 15.9497C20.2519 16.3366 20.0462 16.6999 19.7044 16.8823C19.4838 17 19.1271 17 18.4137 17H5.58618C4.87274 17 4.51602 17 4.29537 16.8823C3.95362 16.6999 3.74791 16.3366 3.76738 15.9497C3.77994 15.7 3.96347 15.3941 4.33053 14.7823L4.88395 13.8599C5.61416 12.6429 5.99988 11.2503 5.99988 9.83098V8Z" fill="#8E8F90"/>
<path d="M14.3499 18C14.4327 18 14.5006 18.0673 14.4929 18.1498C14.4483 18.6254 14.1922 19.0746 13.7677 19.4142C13.2988 19.7893 12.6629 20 11.9999 20C11.3369 20 10.701 19.7893 10.2321 19.4142C9.80765 19.0746 9.55158 18.6254 9.50695 18.1498C9.49921 18.0673 9.56709 18 9.64993 18H11.9999H14.3499Z" fill="black"/>
</svg>
