<svg width="24" height="24" viewBox="0 0 24 24" fill="none" xmlns="http://www.w3.org/2000/svg">
<path opacity="0.4" fill-rule="evenodd" clip-rule="evenodd" d="M11.9998 2C8.68618 2 5.99989 4.68629 5.99989 8V9.83098C5.99989 11.2503 5.61416 12.6429 4.88395 13.8599L4.33054 14.7823C3.96348 15.3941 3.77995 15.7 3.76738 15.9497C3.74792 16.3366 3.95362 16.6999 4.29538 16.8823C4.51603 17 4.87275 17 5.58618 17H18.4136C19.127 17 19.4837 17 19.7044 16.8823C20.0462 16.6999 20.2519 16.3366 20.2324 15.9497C20.2198 15.7 20.0363 15.3941 19.6692 14.7823L19.1158 13.8599C18.3856 12.6429 17.9998 11.2503 17.9998 9.83095V9.31701C17.9998 9.15273 17.9998 9.07059 17.953 9.02622C17.9062 8.98185 17.8162 8.98668 17.6361 8.99635C17.591 8.99877 17.5456 9 17.4999 9C16.1192 9 14.9999 7.88071 14.9999 6.5C14.9999 5.58144 15.4953 4.77858 16.2335 4.34403C16.4106 4.23979 16.4991 4.18767 16.509 4.11576C16.519 4.04385 16.4566 3.97881 16.332 3.84874C15.2399 2.70938 13.7027 2 11.9998 2Z" fill="#8E8F90"/>
<path d="M17.5 10C19.433 10 21 8.433 21 6.5C21 4.567 19.433 3 17.5 3C15.567 3 14 4.567 14 6.5C14 8.433 15.567 10 17.5 10Z" fill="#FF0000"/>
<path d="M14.3499 18C14.4327 18 14.5006 18.0673 14.4929 18.1498C14.4483 18.6254 14.1922 19.0746 13.7677 19.4142C13.2988 19.7893 12.6629 20 11.9999 20C11.3369 20 10.701 19.7893 10.2321 19.4142C9.80765 19.0746 9.55158 18.6254 9.50695 18.1498C9.49921 18.0673 9.56709 18 9.64993 18H11.9999H14.3499Z" fill="black"/>
</svg>
