<svg width="30" height="30" viewBox="0 0 30 30" fill="none" xmlns="http://www.w3.org/2000/svg">
<path d="M19.3903 8.48813C19.8341 8.48813 20.268 8.35652 20.6371 8.10994C21.0061 7.86336 21.2937 7.51288 21.4636 7.10283C21.6334 6.69278 21.6778 6.24158 21.5913 5.80627C21.5047 5.37097 21.2909 4.97111 20.9771 4.65728C20.6633 4.34344 20.2634 4.12971 19.8281 4.04312C19.3928 3.95653 18.9416 4.00097 18.5315 4.17082C18.1215 4.34067 17.771 4.6283 17.5244 4.99733C17.2779 5.36637 17.1463 5.80023 17.1463 6.24407C17.148 6.83869 17.385 7.40846 17.8055 7.82892C18.2259 8.24939 18.7957 8.48638 19.3903 8.48813ZM7.60969 15.7759C6.5002 15.7759 5.41562 16.1049 4.49311 16.7213C3.57061 17.3377 2.8516 18.2138 2.42701 19.2388C2.00243 20.2639 1.89134 21.3918 2.10779 22.48C2.32424 23.5681 2.85851 24.5677 3.64304 25.3522C4.42757 26.1367 5.42712 26.671 6.51529 26.8875C7.60347 27.1039 8.73139 26.9928 9.75642 26.5682C10.7815 26.1437 11.6576 25.4247 12.274 24.5021C12.8904 23.5796 13.2194 22.4951 13.2194 21.3856C13.2151 19.8991 12.6227 18.4747 11.5716 17.4236C10.5205 16.3725 9.09616 15.7801 7.60969 15.7759ZM7.60969 25.3124C6.83303 25.3124 6.07381 25.0821 5.42803 24.6506C4.78226 24.2192 4.27894 23.6059 3.98173 22.8883C3.68451 22.1708 3.60675 21.3812 3.75827 20.6195C3.90979 19.8577 4.28379 19.158 4.83297 18.6088C5.38215 18.0597 6.08185 17.6857 6.84359 17.5341C7.60533 17.3826 8.3949 17.4604 9.11244 17.7576C9.82998 18.0548 10.4433 18.5581 10.8748 19.2039C11.3063 19.8497 11.5366 20.6089 11.5366 21.3856C11.5405 21.9026 11.4416 22.4152 11.2457 22.8937C11.0498 23.3721 10.7608 23.8069 10.3954 24.1727C10.0301 24.5385 9.59564 24.828 9.11742 25.0245C8.63919 25.221 8.12669 25.3205 7.60969 25.3172V25.3124ZM14.1168 14.1491L16.7531 11.4568L17.5945 12.2982C18.3315 13.0485 19.2145 13.6398 20.189 14.0354C21.1635 14.431 22.2088 14.6226 23.2602 14.5983V12.3571C22.5036 12.3732 21.7514 12.2375 21.0481 11.9581C20.3448 11.6787 19.7046 11.2612 19.1652 10.7303L16.981 8.5983C16.7841 8.38585 16.5454 8.21636 16.28 8.10046C16.0145 7.98455 15.7279 7.92472 15.4383 7.92472C15.1486 7.92472 14.8621 7.98455 14.5966 8.10046C14.3311 8.21636 14.0925 8.38585 13.8955 8.5983L10.8072 11.6857C10.3849 12.1003 10.143 12.6646 10.1339 13.2564C10.1535 13.8624 10.3928 14.4406 10.8072 14.8832L14.3457 18.0247V23.6344H16.5897V16.622L14.1206 14.1529L14.1168 14.1491ZM23.3172 15.7759C22.2077 15.7759 21.1231 16.1049 20.2006 16.7213C19.2781 17.3377 18.5591 18.2138 18.1345 19.2388C17.7099 20.2639 17.5988 21.3918 17.8153 22.48C18.0317 23.5681 18.566 24.5677 19.3505 25.3522C20.1351 26.1367 21.1346 26.671 22.2228 26.8875C23.311 27.1039 24.4389 26.9928 25.4639 26.5682C26.489 26.1437 27.3651 25.4247 27.9815 24.5021C28.5979 23.5796 28.9269 22.4951 28.9269 21.3856C28.9226 19.8991 28.3302 18.4747 27.2791 17.4236C26.228 16.3725 24.8037 15.7801 23.3172 15.7759ZM23.3172 25.3124C22.5405 25.3124 21.7813 25.0821 21.1355 24.6506C20.4898 24.2192 19.9864 23.6059 19.6892 22.8883C19.392 22.1708 19.3142 21.3812 19.4658 20.6195C19.6173 19.8577 19.9913 19.158 20.5405 18.6088C21.0897 18.0597 21.7894 17.6857 22.5511 17.5341C23.3128 17.3826 24.1024 17.4604 24.8199 17.7576C25.5375 18.0548 26.1508 18.5581 26.5823 19.2039C27.0138 19.8497 27.2441 20.6089 27.2441 21.3856C27.248 21.9026 27.1491 22.4152 26.9532 22.8937C26.7573 23.3721 26.4683 23.8069 26.1029 24.1727C25.7376 24.5385 25.3031 24.828 24.8249 25.0245C24.3467 25.221 23.8342 25.3205 23.3172 25.3172V25.3124Z" fill="black"/>
</svg>
