<svg width="25" height="24" viewBox="0 0 25 24" fill="none" xmlns="http://www.w3.org/2000/svg">
<path fill-rule="evenodd" clip-rule="evenodd" d="M19.9994 4.00051H18.9991V2H16.9999V4.00051H9.00014V2H6.99957V4.00051H5.99929C5.46904 4.00051 4.96052 4.21115 4.58558 4.58607C4.21064 4.961 4 5.46951 4 5.99974V19.9995C3.99983 20.2622 4.05146 20.5225 4.15194 20.7653C4.25242 21.008 4.39977 21.2286 4.58558 21.4144C4.77138 21.6002 4.99199 21.7476 5.23479 21.8481C5.47758 21.9485 5.73781 22.0002 6.00057 22H19.9994C20.5296 21.9986 21.0377 21.7874 21.4125 21.4126C21.7874 21.0377 21.9986 20.5296 22 19.9995V5.99974C21.9983 5.46981 21.7869 4.96209 21.4121 4.5875C21.0372 4.2129 20.5294 4.00187 19.9994 4.00051ZM19.9994 19.9995H6.00057V8.99923H19.9994V19.9995ZM7.49971 13.0003C7.49971 12.506 7.64627 12.0228 7.92086 11.6118C8.19544 11.2008 8.58572 10.8805 9.04236 10.6913C9.49899 10.5021 10.0015 10.4525 10.4863 10.5488C10.9711 10.6452 11.4164 10.8831 11.7661 11.2325C12.1157 11.5819 12.3538 12.0271 12.4504 12.5119C12.547 12.9966 12.4977 13.4991 12.3087 13.9558C12.1197 14.4125 11.7995 14.803 11.3887 15.0778C10.9778 15.3526 10.4947 15.4994 10.0004 15.4996C9.33742 15.4996 8.70155 15.2363 8.23261 14.7676C7.76367 14.299 7.50006 13.6632 7.49971 13.0003Z" fill="black"/>
</svg>
