<svg width="24" height="24" viewBox="0 0 24 24" fill="none" xmlns="http://www.w3.org/2000/svg">
<path opacity="0.4" d="M11.8053 14.21L8.53054 17.48C8.17002 17.16 7.81952 16.83 7.47902 16.49C6.46633 15.472 5.53231 14.3789 4.68499 13.22C3.90676 12.1591 3.24848 11.0155 2.72215 9.81002C2.26473 8.77925 2.0192 7.66728 2.00011 6.54001C1.9958 5.8796 2.11818 5.22447 2.36063 4.61001C2.61534 3.97474 3.00879 3.40421 3.51229 2.94001C3.77897 2.65202 4.10084 2.42042 4.45882 2.25895C4.8168 2.09748 5.20361 2.00943 5.5963 2.00001C5.87675 1.9989 6.1539 2.0604 6.40748 2.18001C6.67797 2.30227 6.90996 2.49589 7.07845 2.74001L9.4018 6.01002C9.56248 6.22677 9.69694 6.46174 9.80238 6.71001C9.88935 6.90199 9.93702 7.10938 9.94258 7.32001C9.93974 7.57157 9.86693 7.81739 9.73228 8.03001C9.57783 8.29056 9.38923 8.52934 9.17147 8.74001L8.41037 9.53001C8.35735 9.58196 8.31573 9.64434 8.28815 9.7132C8.26057 9.78206 8.24762 9.85589 8.25014 9.93002C8.25026 10.0076 8.26036 10.0849 8.28018 10.16C8.31022 10.24 8.34027 10.3 8.3603 10.36C8.62922 10.8153 8.94108 11.2439 9.29164 11.64C9.74229 12.16 10.223 12.69 10.7437 13.22C11.1043 13.57 11.4548 13.91 11.8053 14.21Z" fill="#8E8F90"/>
<path d="M22 18.33C21.9988 18.6198 21.948 18.9073 21.8497 19.18C21.8206 19.2617 21.7872 19.3418 21.7496 19.42C21.5747 19.792 21.3452 20.1358 21.0686 20.44C20.6176 20.9524 20.056 21.3558 19.4262 21.62C19.4162 21.62 19.4062 21.63 19.3962 21.63C18.7855 21.8772 18.1324 22.0029 17.4734 22C16.347 21.9792 15.2364 21.7309 14.2087 21.27C12.9891 20.7421 11.8334 20.0779 10.7637 19.29C10.3732 19 9.9826 18.71 9.61206 18.4L12.8868 15.13C13.1208 15.3092 13.3686 15.4696 13.6279 15.61C13.6779 15.63 13.738 15.66 13.8081 15.69C13.8884 15.7186 13.9733 15.7322 14.0585 15.73C14.135 15.7317 14.211 15.7175 14.2817 15.6882C14.3524 15.6589 14.4162 15.6153 14.4691 15.56L15.2302 14.81C15.4412 14.5885 15.6843 14.3998 15.9512 14.25C16.1636 14.1143 16.4101 14.0415 16.6622 14.04C16.8724 14.0429 17.08 14.0871 17.2731 14.17C17.5197 14.2754 17.7546 14.4061 17.9741 14.56L21.2889 16.91C21.5294 17.067 21.7204 17.289 21.8397 17.55C21.9436 17.7971 21.9981 18.0621 22 18.33Z" fill="black"/>
</svg>
