<svg width="30" height="30" viewBox="0 0 30 30" fill="none" xmlns="http://www.w3.org/2000/svg">
<path d="M7.12561 20.143C6.60641 20.143 6.09887 19.9922 5.66717 19.7097C5.23547 19.4271 4.89899 19.0255 4.70031 18.5556C4.50162 18.0857 4.44964 17.5687 4.55093 17.0698C4.65222 16.571 4.90224 16.1128 5.26937 15.7532C5.6365 15.3936 6.10424 15.1487 6.61347 15.0494C7.12269 14.9502 7.65053 15.0011 8.13021 15.1958C8.60989 15.3904 9.01986 15.72 9.30831 16.1429C9.59676 16.5658 9.75073 17.0629 9.75073 17.5715C9.74995 18.2533 9.47313 18.9069 8.981 19.389C8.48886 19.8711 7.8216 20.1422 7.12561 20.143ZM7.12561 16.714C6.95248 16.714 6.78324 16.7643 6.63928 16.8586C6.49533 16.9528 6.38312 17.0867 6.31687 17.2434C6.25061 17.4 6.23328 17.5724 6.26705 17.7388C6.30083 17.9051 6.3842 18.0579 6.50663 18.1778C6.62905 18.2978 6.78503 18.3794 6.95483 18.4125C7.12464 18.4456 7.30065 18.4286 7.4606 18.3637C7.62055 18.2988 7.75727 18.1889 7.85346 18.0479C7.94964 17.9069 8.00098 17.7411 8.00098 17.5715C8.00098 17.3441 7.90875 17.126 7.74459 16.9652C7.58043 16.8044 7.35777 16.714 7.12561 16.714Z" fill="black"/>
<path d="M22.8756 20.143C22.3564 20.143 21.8489 19.9922 21.4172 19.7097C20.9855 19.4271 20.649 19.0255 20.4503 18.5556C20.2516 18.0857 20.1996 17.5687 20.3009 17.0698C20.4022 16.571 20.6522 16.1128 21.0194 15.7532C21.3865 15.3936 21.8542 15.1487 22.3635 15.0494C22.8727 14.9502 23.4005 15.0011 23.8802 15.1958C24.3599 15.3904 24.7699 15.72 25.0583 16.1429C25.3468 16.5658 25.5007 17.0629 25.5007 17.5715C25.4999 18.2533 25.2231 18.9069 24.731 19.389C24.2388 19.8711 23.5716 20.1422 22.8756 20.143ZM22.8756 16.714C22.7024 16.714 22.5332 16.7643 22.3893 16.8586C22.2453 16.9528 22.1331 17.0867 22.0669 17.2434C22.0006 17.4 21.9833 17.5724 22.0171 17.7388C22.0508 17.9051 22.1342 18.0579 22.2566 18.1778C22.379 18.2978 22.535 18.3794 22.7048 18.4125C22.8746 18.4456 23.0506 18.4286 23.2106 18.3637C23.3705 18.2988 23.5072 18.1889 23.6034 18.0479C23.6996 17.9069 23.751 17.7411 23.751 17.5715C23.751 17.3441 23.6587 17.126 23.4946 16.9652C23.3304 16.8044 23.1077 16.714 22.8756 16.714Z" fill="black"/>
<path d="M27.1766 13.1262C26.9487 11.7683 26.2089 7.61659 25.4082 6.04501C24.8747 4.9989 23.5042 4.19913 21.3379 3.66886C17.1623 2.77746 12.8397 2.77746 8.66417 3.66886C6.49786 4.20009 5.12733 4.9989 4.59386 6.04501C3.79217 7.61563 3.05239 11.7693 2.82544 13.1262C2.23049 13.5185 1.74969 14.0554 1.43006 14.6843C1.11044 15.3131 0.96294 16.0126 1.002 16.714V20.9966C1.00244 21.5282 1.17088 22.0467 1.48418 22.4807C1.79748 22.9148 2.24027 23.2432 2.75175 23.4209V25.2821C2.75253 25.7365 2.93713 26.172 3.26511 26.4933C3.59308 26.8146 4.03768 26.9954 4.50151 26.9962H6.25127C6.71509 26.9954 7.15969 26.8146 7.48766 26.4933C7.81564 26.172 8.00024 25.7365 8.00102 25.2821V23.5681H22.001V25.2821C22.0018 25.7365 22.1864 26.172 22.5144 26.4933C22.8423 26.8146 23.2869 26.9954 23.7508 26.9962H25.5005C25.9643 26.9954 26.409 26.8146 26.7369 26.4933C27.0649 26.172 27.2495 25.7365 27.2503 25.2821V23.4209C27.7618 23.2432 28.2046 22.9148 28.5179 22.4807C28.8312 22.0467 28.9996 21.5282 29 20.9966V16.714C29.0391 16.0126 28.8916 15.3131 28.572 14.6843C28.2523 14.0554 27.7715 13.5185 27.1766 13.1262ZM6.15695 6.81297C6.67667 5.79669 9.95119 4.71498 14.9991 4.71498C20.0469 4.71498 23.3224 5.79477 23.8412 6.81297C24.4908 8.58242 24.9613 10.4101 25.2461 12.2697C25.0741 12.2197 24.8983 12.1735 24.7155 12.1331C24.2479 12.0253 23.7439 11.9406 23.2055 11.8655L18.1321 8.30469C18.0389 8.23629 17.9326 8.18679 17.8196 8.15913C17.7066 8.13147 17.5891 8.1262 17.474 8.1436C17.3588 8.16099 17.2484 8.20072 17.1492 8.26046C17.0499 8.32019 16.9638 8.39871 16.8959 8.49145C16.8281 8.58419 16.7798 8.68928 16.7539 8.80054C16.728 8.91179 16.7251 9.02699 16.7452 9.13938C16.7654 9.25176 16.8082 9.35908 16.8713 9.45504C16.9343 9.551 17.0163 9.63369 17.1123 9.69822L19.8524 11.623C18.3649 11.5749 16.7341 11.5749 14.9961 11.5749H14.385L9.35582 8.29024C9.16275 8.16428 8.92649 8.1186 8.69904 8.16327C8.47159 8.20794 8.27157 8.33929 8.14298 8.52843C8.0144 8.71756 7.96777 8.94899 8.01337 9.1718C8.05897 9.39461 8.19306 9.59053 8.38614 9.71649L11.2628 11.5951C9.25426 11.5749 7.24887 11.7552 5.27765 12.1331C5.09589 12.1764 4.91905 12.2226 4.74712 12.2697C5.03239 10.41 5.50363 8.58232 6.154 6.81297H6.15695ZM6.24929 25.2908H4.49954V23.5768H6.24929V25.2908ZM23.7498 25.2908V23.5768H25.4995V25.2908H23.7498ZM27.2503 21.0053C27.2503 21.2327 27.1581 21.4508 26.9939 21.6116C26.8297 21.7724 26.6071 21.8628 26.3749 21.8628H3.62516C3.39299 21.8628 3.17034 21.7724 3.00618 21.6116C2.84202 21.4508 2.74979 21.2327 2.74979 21.0053V16.714C2.74979 15.1299 3.60059 14.285 5.68635 13.798C7.88214 13.285 11.1812 13.285 15 13.285C18.8188 13.285 22.116 13.285 24.3137 13.798C26.3995 14.285 27.2503 15.1299 27.2503 16.714V21.0053Z" fill="black"/>
</svg>
