<svg width="24" height="24" viewBox="0 0 24 24" fill="none" xmlns="http://www.w3.org/2000/svg">
<path d="M10.5997 13.8006L8.45014 11.651C8.35835 11.5597 8.24886 11.4882 8.1284 11.4408C8.00794 11.3934 7.87905 11.3712 7.74968 11.3755C7.62031 11.3712 7.49143 11.3934 7.37096 11.4408C7.2505 11.4882 7.141 11.5597 7.04922 11.651C6.95794 11.7428 6.88642 11.8523 6.83904 11.9728C6.79167 12.0932 6.76944 12.2221 6.77373 12.3515C6.76944 12.4809 6.79167 12.6097 6.83904 12.7302C6.88642 12.8506 6.95794 12.9601 7.04922 13.0519L9.89924 15.9019C9.98931 15.9971 10.0979 16.0729 10.2184 16.1245C10.3389 16.1761 10.4686 16.2025 10.5997 16.2021C10.7308 16.2025 10.8605 16.1761 10.981 16.1245C11.1015 16.0729 11.2101 15.9971 11.3002 15.9019L16.9508 10.2525C17.0421 10.1608 17.1136 10.0513 17.161 9.9308C17.2083 9.81034 17.2306 9.68143 17.2263 9.55206C17.2306 9.42269 17.2083 9.29385 17.161 9.17339C17.1136 9.05293 17.0421 8.94344 16.9508 8.85165C16.859 8.76032 16.7496 8.68874 16.6291 8.64136C16.5086 8.59398 16.3797 8.57177 16.2503 8.57614C16.1209 8.57177 15.992 8.59398 15.8716 8.64136C15.7511 8.68874 15.6416 8.76032 15.5499 8.85165L10.5997 13.8006ZM11.9994 22.001C10.6591 22.0099 9.33131 21.742 8.09929 21.214C6.91442 20.7105 5.83676 19.9851 4.92436 19.0769C4.01611 18.1644 3.29069 17.0868 2.78716 15.9019C2.25905 14.6695 1.99114 13.3413 2.00022 12.0006C1.99131 10.6602 2.25921 9.33252 2.78716 8.1005C3.29072 6.91566 4.01613 5.838 4.92436 4.92557C5.8368 4.01734 6.91445 3.29194 8.09929 2.78839C9.3316 2.25988 10.6598 1.99156 12.0006 2.00021C13.341 1.99134 14.6687 2.25927 15.9007 2.78718C17.0856 3.29073 18.1632 4.01613 19.0756 4.92436C19.9839 5.83678 20.7093 6.91444 21.2128 8.0993C21.7408 9.33131 22.0087 10.659 21.9998 11.9994C22.0087 13.3397 21.7408 14.6674 21.2128 15.8994C20.7093 17.0843 19.9839 18.162 19.0756 19.0744C18.1632 19.9827 17.0856 20.7081 15.9007 21.2116C14.6688 21.74 13.341 22.0083 12.0006 21.9998L11.9994 22.001ZM11.9994 20.0009C13.054 20.0216 14.1017 19.826 15.0778 19.4261C16.0539 19.0262 16.9377 18.4306 17.6747 17.676C18.4294 16.939 19.025 16.0551 19.4249 15.079C19.8248 14.1029 20.0204 13.0552 19.9997 12.0006C20.0204 10.9459 19.8248 9.89833 19.4249 8.92223C19.025 7.94613 18.4294 7.06225 17.6747 6.32525C16.9377 5.57059 16.0539 4.97498 15.0778 4.5751C14.1017 4.17523 13.054 3.97963 11.9994 4.00032C10.9448 3.97947 9.89721 4.17491 8.92112 4.57457C7.94502 4.97423 7.06116 5.56961 6.32405 6.32404C5.5694 7.06104 4.97375 7.94485 4.57388 8.92095C4.174 9.89705 3.97837 10.9447 3.99906 11.9994C3.97837 13.054 4.174 14.1017 4.57388 15.0778C4.97375 16.0539 5.5694 16.9377 6.32405 17.6747C7.06109 18.4297 7.94506 19.0257 8.92139 19.4258C9.89772 19.8259 10.9445 20.0216 11.9994 20.0009Z" fill="#1BA671"/>
</svg>
