<svg width="24" height="24" viewBox="0 0 24 24" fill="none" xmlns="http://www.w3.org/2000/svg">
<path d="M14.9628 11.9736L21.3915 5.53231C21.7618 5.13414 21.9634 4.60751 21.9538 4.06336C21.9442 3.51921 21.7242 3.00003 21.3401 2.6152C20.9561 2.23037 20.4379 2.00993 19.8948 2.00033C19.3517 1.99073 18.8261 2.19271 18.4287 2.56373L12 9.00498L5.57129 2.56373C5.1739 2.19271 4.64829 1.99073 4.1052 2.00033C3.56211 2.00993 3.04395 2.23037 2.65987 2.6152C2.27578 3.00003 2.05577 3.51921 2.04619 4.06336C2.03661 4.60751 2.2382 5.13414 2.6085 5.53231L9.0372 11.9736L2.6085 18.4148C2.21864 18.8101 2 19.3434 2 19.8991C2 20.4548 2.21864 20.9881 2.6085 21.3834C2.80275 21.5788 3.03361 21.7339 3.28783 21.8397C3.54204 21.9455 3.81461 22 4.08989 22C4.36517 22 4.63774 21.9455 4.89196 21.8397C5.14618 21.7339 5.37704 21.5788 5.57129 21.3834L12 14.9421L18.4287 21.3834C18.623 21.5788 18.8538 21.7339 19.108 21.8397C19.3623 21.9455 19.6348 22 19.9101 22C20.1854 22 20.458 21.9455 20.7122 21.8397C20.9664 21.7339 21.1973 21.5788 21.3915 21.3834C21.7814 20.9881 22 20.4548 22 19.8991C22 19.3434 21.7814 18.8101 21.3915 18.4148L14.9628 11.9736Z" fill="black"/>
</svg>
