<svg width="24" height="24" viewBox="0 0 24 24" fill="none" xmlns="http://www.w3.org/2000/svg">
<path d="M6.37521 21.9998C6.07931 22.0038 5.7857 21.9479 5.51251 21.8356C5.23932 21.7232 4.99233 21.5567 4.78677 21.3465C4.57388 21.1434 4.40536 20.8995 4.2916 20.6297C4.17783 20.3598 4.12123 20.0699 4.1253 19.7776V5.33359C3.97656 5.3372 3.82866 5.31064 3.6907 5.25561C3.55275 5.20057 3.42768 5.1182 3.32321 5.01357C3.21762 4.91043 3.1345 4.78708 3.07898 4.65104C3.02345 4.51499 2.99669 4.36915 3.00034 4.22251C2.99663 4.07587 3.02336 3.93004 3.07889 3.79399C3.13442 3.65794 3.21756 3.53456 3.32321 3.43145C3.42764 3.32677 3.5527 3.24432 3.69067 3.18928C3.82863 3.13424 3.97655 3.10776 4.1253 3.11143H8.62513C8.62133 2.96461 8.64802 2.81855 8.70354 2.6823C8.75907 2.54605 8.84227 2.42249 8.948 2.31922C9.05256 2.21479 9.17768 2.13264 9.31563 2.0778C9.45358 2.02295 9.60143 1.9966 9.75009 2.00035H14.2499C14.3986 1.9966 14.5464 2.02295 14.6844 2.0778C14.8223 2.13264 14.9474 2.21479 15.052 2.31922C15.1577 2.42249 15.2409 2.54605 15.2965 2.6823C15.352 2.81855 15.3787 2.96461 15.3749 3.11143H19.8747C20.0233 3.10791 20.171 3.13445 20.3087 3.18949C20.4465 3.24452 20.5714 3.32691 20.6757 3.43145C20.7815 3.53446 20.8649 3.6578 20.9206 3.79385C20.9763 3.92991 21.0032 4.07579 20.9997 4.22251C21.0033 4.36941 20.9765 4.51553 20.9207 4.65178C20.865 4.78803 20.7816 4.91154 20.6757 5.01473C20.5713 5.11901 20.4463 5.20111 20.3086 5.25594C20.1708 5.31078 20.0232 5.33719 19.8747 5.33359V19.7776C19.8788 20.0699 19.8222 20.3598 19.7084 20.6297C19.5946 20.8995 19.4261 21.1434 19.2132 21.3465C19.0077 21.5567 18.7607 21.7232 18.4875 21.8356C18.2143 21.9479 17.9207 22.0038 17.6248 21.9998H6.37521ZM17.6248 5.33359H6.37521V19.7776H17.6248V5.33359ZM9.75009 17.5555C9.89856 17.5591 10.0462 17.5327 10.1839 17.4778C10.3217 17.423 10.4466 17.3409 10.5511 17.2366C10.657 17.1334 10.7404 17.0099 10.7961 16.8737C10.8518 16.7374 10.8787 16.5913 10.875 16.4444V8.66683C10.8787 8.5202 10.8519 8.37436 10.7964 8.23831C10.7409 8.10227 10.6578 7.97892 10.5522 7.87577C10.4477 7.77109 10.3227 7.68864 10.1847 7.6336C10.0468 7.57857 9.89884 7.55208 9.75009 7.55575C9.60135 7.55214 9.45345 7.5787 9.31549 7.63374C9.17754 7.68878 9.05247 7.77115 8.948 7.87577C8.84241 7.97892 8.75929 8.10227 8.70377 8.23831C8.64824 8.37436 8.62148 8.5202 8.62513 8.66683V16.4444C8.62133 16.5912 8.64802 16.7373 8.70354 16.8735C8.75907 17.0098 8.84227 17.1333 8.948 17.2366C9.05256 17.341 9.17768 17.4232 9.31563 17.478C9.45358 17.5329 9.60143 17.5592 9.75009 17.5555ZM14.2499 17.5555C14.3986 17.5592 14.5464 17.5329 14.6844 17.478C14.8223 17.4232 14.9474 17.341 15.052 17.2366C15.1577 17.1333 15.2409 17.0098 15.2965 16.8735C15.352 16.7373 15.3787 16.5912 15.3749 16.4444V8.66683C15.3785 8.5202 15.3518 8.37436 15.2962 8.23831C15.2407 8.10227 15.1576 7.97892 15.052 7.87577C14.9476 7.77109 14.8225 7.68864 14.6846 7.6336C14.5466 7.57857 14.3987 7.55208 14.2499 7.55575C14.1012 7.55208 13.9533 7.57857 13.8153 7.6336C13.6773 7.68864 13.5523 7.77109 13.4478 7.87577C13.3422 7.97892 13.2591 8.10227 13.2036 8.23831C13.1481 8.37436 13.1213 8.5202 13.125 8.66683V16.4444C13.1212 16.5912 13.1478 16.7373 13.2034 16.8735C13.2589 17.0098 13.3421 17.1333 13.4478 17.2366C13.5524 17.341 13.6775 17.4232 13.8155 17.478C13.9534 17.5329 14.1013 17.5592 14.2499 17.5555Z" fill="black"/>
</svg>
