<svg width="24" height="24" viewBox="0 0 24 24" fill="none" xmlns="http://www.w3.org/2000/svg">
<path opacity="0.4" d="M20.0453 10.1916H17.3099C16.2309 10.19 15.1966 9.73682 14.4337 8.93145C13.6707 8.12609 13.2414 7.03423 13.2399 5.89527V3.00776C13.2399 2.74277 13.1402 2.48864 12.9627 2.30126C12.7852 2.11389 12.5444 2.00862 12.2934 2.00862H8.28022C7.57735 1.96614 6.87391 2.08099 6.21604 2.34565C5.55818 2.6103 4.96074 3.01877 4.46292 3.54427C3.9651 4.06976 3.57815 4.70042 3.32744 5.39487C3.07673 6.08931 2.96793 6.83187 3.00817 7.57382V16.4262C2.96793 17.1681 3.07673 17.9107 3.32744 18.6051C3.57815 19.2996 3.9651 19.9302 4.46292 20.4557C4.96074 20.9812 5.55818 21.3897 6.21604 21.6544C6.87391 21.919 7.57735 22.0339 8.28022 21.9914H15.7198C16.4227 22.0339 17.1261 21.919 17.784 21.6544C18.4418 21.3897 19.0393 20.9812 19.5371 20.4557C20.0349 19.9302 20.4218 19.2996 20.6726 18.6051C20.9233 17.9107 21.0321 17.1681 20.9918 16.4262V11.1907C20.9918 10.9257 20.8921 10.6716 20.7146 10.4842C20.5371 10.2968 20.2964 10.1916 20.0453 10.1916Z" fill="#8E8F90"/>
<path d="M15.5967 2.21846C15.5116 2.12712 15.4029 2.0642 15.2842 2.03754C15.1655 2.01087 15.042 2.02163 14.929 2.06847C14.8161 2.11532 14.7187 2.19619 14.6489 2.30102C14.5791 2.40584 14.5401 2.53001 14.5366 2.65808V6.14507C14.5505 6.86185 14.8316 7.54394 15.3189 8.04335C15.8062 8.54277 16.4604 8.81923 17.1395 8.81277C18.0387 8.82276 19.2881 8.82276 20.3577 8.82276C20.4763 8.82613 20.5932 8.79209 20.6935 8.725C20.7937 8.65791 20.8728 8.5608 20.9205 8.44608C20.9683 8.33135 20.9825 8.20421 20.9615 8.08089C20.9405 7.95756 20.8851 7.84365 20.8025 7.75368C19.4395 6.30493 16.9975 3.69718 15.5967 2.21846Z" fill="black"/>
<path d="M13.4197 13.7485H7.74064C7.55237 13.7485 7.37181 13.6695 7.23868 13.529C7.10555 13.3885 7.03076 13.1979 7.03076 12.9991C7.03076 12.8004 7.10555 12.6098 7.23868 12.4693C7.37181 12.3287 7.55237 12.2498 7.74064 12.2498H13.4197C13.608 12.2498 13.7885 12.3287 13.9217 12.4693C14.0548 12.6098 14.1296 12.8004 14.1296 12.9991C14.1296 13.1979 14.0548 13.3885 13.9217 13.529C13.7885 13.6695 13.608 13.7485 13.4197 13.7485Z" fill="black"/>
<path d="M11.5267 17.745H7.74064C7.55237 17.745 7.37181 17.6661 7.23868 17.5256C7.10555 17.385 7.03076 17.1944 7.03076 16.9957C7.03076 16.797 7.10555 16.6063 7.23868 16.4658C7.37181 16.3253 7.55237 16.2463 7.74064 16.2463H11.5267C11.715 16.2463 11.8955 16.3253 12.0286 16.4658C12.1618 16.6063 12.2366 16.797 12.2366 16.9957C12.2366 17.1944 12.1618 17.385 12.0286 17.5256C11.8955 17.6661 11.715 17.745 11.5267 17.745Z" fill="black"/>
</svg>
