<svg width="24" height="24" viewBox="0 0 24 24" fill="none" xmlns="http://www.w3.org/2000/svg">
<path opacity="0.4" d="M17 20H7C4 20 2 18.5882 2 15.2941V8.70588C2 5.41176 4 4 7 4H17C20 4 22 5.41176 22 8.70588V15.2941C22 18.5882 20 20 17 20Z" fill="#8E8F90"/>
<path d="M12.0001 12.8188C11.1529 12.8293 10.3273 12.5669 9.6601 12.0753L6.5301 9.72237C6.37495 9.6063 6.27514 9.43698 6.25264 9.25165C6.23013 9.06632 6.28677 8.88016 6.4101 8.73414C6.53343 8.58811 6.71333 8.49418 6.91025 8.473C7.10716 8.45182 7.30495 8.50512 7.4601 8.6212L10.5901 10.9741C10.9982 11.254 11.4902 11.4048 11.9951 11.4048C12.5 11.4048 12.992 11.254 13.4001 10.9741L16.5301 8.6212C16.6853 8.50512 16.883 8.45182 17.08 8.473C17.2769 8.49418 17.4568 8.58811 17.5801 8.73414C17.7034 8.88016 17.7601 9.06632 17.7376 9.25165C17.7151 9.43698 17.6153 9.6063 17.4601 9.72237L14.3301 12.0753C13.6675 12.5681 12.8445 12.8307 12.0001 12.8188Z" fill="black"/>
</svg>
