<svg width="24" height="24" viewBox="0 0 24 24" fill="none" xmlns="http://www.w3.org/2000/svg">
<path d="M12 5.00084C9.88104 4.97436 7.8015 5.57708 6.02241 6.73334C4.24332 7.8896 2.84397 9.54787 2 11.5C2.84397 13.4521 4.24332 15.1104 6.02241 16.2667C7.8015 17.4229 9.88104 18.0256 12 17.9992C14.119 18.0256 16.1985 17.4229 17.9776 16.2667C19.7567 15.1104 21.156 13.4521 22 11.5C21.156 9.54787 19.7567 7.8896 17.9776 6.73334C16.1985 5.57708 14.119 4.97436 12 5.00084ZM12 15.8321C10.8259 15.8616 9.68815 15.4224 8.83609 14.6106C7.98404 13.7989 7.48728 12.681 7.45473 11.502C7.48728 10.323 7.98404 9.2051 8.83609 8.39338C9.68815 7.58167 10.8259 7.14241 12 7.17192C13.1741 7.14241 14.3119 7.58167 15.1639 8.39338C16.016 9.2051 16.5127 10.323 16.5453 11.502C16.513 12.6812 16.0163 13.7994 15.1643 14.6113C14.3122 15.4232 13.1742 15.8626 12 15.8331V15.8321ZM12 8.89993C11.6509 8.89055 11.3033 8.95039 10.9772 9.07603C10.6511 9.20167 10.3529 9.39063 10.0996 9.63212C9.84627 9.87361 9.64285 10.1629 9.50095 10.4834C9.35906 10.8039 9.28147 11.1494 9.27264 11.5C9.28147 11.8506 9.35906 12.1961 9.50095 12.5166C9.64285 12.8371 9.84627 13.1264 10.0996 13.3679C10.3529 13.6094 10.6511 13.7983 10.9772 13.924C11.3033 14.0496 11.6509 14.1094 12 14.1001C12.3491 14.1094 12.6967 14.0496 13.0228 13.924C13.3489 13.7983 13.6471 13.6094 13.9004 13.3679C14.1537 13.1264 14.3572 12.8371 14.499 12.5166C14.6409 12.1961 14.7185 11.8506 14.7274 11.5C14.7184 11.1494 14.6407 10.8041 14.4988 10.4837C14.3568 10.1633 14.1534 9.87415 13.9001 9.63277C13.6468 9.39139 13.3486 9.20251 13.0226 9.07694C12.6965 8.95137 12.3491 8.89055 12 8.89993Z" fill="black"/>
</svg>
