<svg width="24" height="24" viewBox="0 0 24 24" fill="none" xmlns="http://www.w3.org/2000/svg">
<path d="M4.5727 19.9753H19.4273C19.7717 20.0276 20.1232 19.9966 20.454 19.8849C20.7847 19.7732 21.0858 19.5838 21.3333 19.3316C21.5809 19.0794 21.7681 18.7713 21.8803 18.4318C21.9924 18.0922 22.0264 17.7304 21.9796 17.375V8.61258C22.0243 8.25814 21.9887 7.89784 21.8756 7.55995C21.7625 7.22205 21.575 6.91576 21.3277 6.66508C21.0804 6.41441 20.7801 6.22617 20.4504 6.11514C20.1207 6.0041 19.7705 5.97329 19.4273 6.02512H17.1033C16.8731 6.05348 16.6397 6.01707 16.428 5.91975C16.2163 5.82244 16.0341 5.66785 15.9008 5.47241L15.2508 4.71918C15.0503 4.47305 14.7955 4.27997 14.5077 4.15608C14.22 4.0322 13.9076 3.98111 13.5967 4.00709H10.3534C10.0415 3.98005 9.72788 4.03063 9.43894 4.15455C9.14999 4.27847 8.89417 4.47212 8.69302 4.71918L8.0431 5.47241C7.90795 5.66583 7.72546 5.81888 7.51421 5.91598C7.30297 6.01307 7.07053 6.05073 6.84056 6.02512H4.5727C4.22949 5.97329 3.87929 6.0041 3.54957 6.11514C3.21985 6.22617 2.91958 6.41441 2.67232 6.66508C2.42505 6.91576 2.23751 7.22205 2.1244 7.55995C2.0113 7.89784 1.97571 8.25814 2.02042 8.61258V17.375C1.97358 17.7304 2.00758 18.0922 2.11973 18.4318C2.23189 18.7713 2.41913 19.0794 2.66666 19.3316C2.9142 19.5838 3.21525 19.7732 3.54605 19.8849C3.87684 19.9966 4.22831 20.0276 4.5727 19.9753ZM12 17.5035C11.1213 17.5061 10.2616 17.2399 9.52976 16.7389C8.7979 16.2378 8.22676 15.5242 7.88861 14.6885C7.55047 13.8528 7.46052 12.9326 7.63016 12.0442C7.7998 11.1558 8.2214 10.3392 8.8416 9.69785C9.46179 9.05645 10.2527 8.61905 11.1143 8.44101C11.9758 8.26297 12.8692 8.35228 13.6815 8.69765C14.4938 9.04302 15.1883 9.62892 15.6773 10.3812C16.1663 11.1335 16.4277 12.0183 16.4284 12.9237C16.4319 13.5247 16.3198 14.1205 16.0987 14.6767C15.8776 15.2328 15.5518 15.7384 15.1401 16.1642C14.7284 16.5899 14.239 16.9275 13.7 17.1574C13.1611 17.3872 12.5833 17.5049 12 17.5035ZM16.9736 9.8414C16.9736 9.55487 17.084 9.28008 17.2807 9.07747C17.4773 8.87487 17.744 8.76104 18.0221 8.76104C18.3001 8.76104 18.5668 8.87487 18.7634 9.07747C18.9601 9.28008 19.0705 9.55487 19.0705 9.8414C19.0705 9.98327 19.0434 10.1238 18.9907 10.2548C18.938 10.3859 18.8608 10.505 18.7634 10.6053C18.6661 10.7056 18.5505 10.7852 18.4233 10.8395C18.2961 10.8938 18.1597 10.9218 18.0221 10.9218C17.8844 10.9218 17.748 10.8938 17.6208 10.8395C17.4936 10.7852 17.378 10.7056 17.2807 10.6053C17.1833 10.505 17.1061 10.3859 17.0534 10.2548C17.0007 10.1238 16.9736 9.98327 16.9736 9.8414ZM12 16.2323C12.6348 16.2323 13.2554 16.0383 13.7832 15.6749C14.311 15.3115 14.7224 14.795 14.9654 14.1906C15.2083 13.5863 15.2719 12.9213 15.148 12.2798C15.0242 11.6382 14.7185 11.0489 14.2696 10.5864C13.8207 10.1239 13.2488 9.8089 12.6262 9.68129C12.0036 9.55368 11.3582 9.61917 10.7717 9.86949C10.1852 10.1198 9.68393 10.5437 9.33125 11.0876C8.97856 11.6315 8.79032 12.2709 8.79032 12.925C8.78834 13.3599 8.87 13.7909 9.0306 14.1931C9.1912 14.5952 9.42755 14.9606 9.72599 15.2682C10.0244 15.5757 10.3791 15.8192 10.7694 15.9847C11.1597 16.1502 11.5779 16.2343 12 16.2323Z" fill="black"/>
</svg>
