<svg width="24" height="24" viewBox="0 0 24 24" fill="none" xmlns="http://www.w3.org/2000/svg">
<path fill-rule="evenodd" clip-rule="evenodd" d="M14.2777 2.74844L20.032 6.57738C21.1309 7.30896 22 8.88615 22 10.1688V16.6105C22 19.0333 19.9321 21 17.3846 21H6.61539C4.06793 21 2 19.0238 2 16.601V10.0452C2 8.84814 2.78921 7.32797 3.78821 6.58688L8.79322 2.87195C10.3017 1.76033 12.7093 1.70332 14.2777 2.74844ZM11.2505 17.1997C11.2505 17.5892 11.5902 17.9122 11.9998 17.9122C12.4094 17.9122 12.749 17.5892 12.749 17.1997V14.3493C12.749 13.9598 12.4094 13.6367 11.9998 13.6367C11.5902 13.6367 11.2505 13.9598 11.2505 14.3493V17.1997Z" fill="black"/>
</svg>
