<svg width="24" height="24" viewBox="0 0 24 24" fill="none" xmlns="http://www.w3.org/2000/svg">
<path opacity="0.4" d="M12 22C13.9778 22 15.9112 21.4135 17.5557 20.3147C19.2002 19.2159 20.4819 17.6541 21.2388 15.8268C21.9957 13.9996 22.1937 11.9889 21.8078 10.0491C21.422 8.10929 20.4696 6.32746 19.0711 4.92894C17.6725 3.53041 15.8907 2.578 13.9509 2.19215C12.0111 1.8063 10.0004 2.00433 8.17316 2.76121C6.3459 3.51809 4.78412 4.79981 3.6853 6.4443C2.58649 8.08879 2 10.0222 2 12C2 14.6522 3.05357 17.1957 4.92893 19.0711C6.80429 20.9464 9.34783 22 12 22Z" fill="#8E8F90"/>
<path d="M11.9999 13.7711C12.1996 13.7697 12.3906 13.6897 12.5318 13.5485C12.673 13.4074 12.7529 13.2163 12.7544 13.0167V7.99112C12.7469 7.79619 12.6642 7.61173 12.5236 7.47646C12.383 7.34119 12.1955 7.26562 12.0005 7.26562C11.8054 7.26562 11.6179 7.34119 11.4773 7.47646C11.3368 7.61173 11.2541 7.79619 11.2466 7.99112V13.0178C11.2483 13.217 11.3282 13.4076 11.4692 13.5486C11.6101 13.6895 11.8007 13.7694 11.9999 13.7711Z" fill="black"/>
<path d="M12.9243 15.6156C12.879 15.4907 12.8069 15.3774 12.713 15.2835C12.6191 15.1896 12.5058 15.1175 12.3809 15.0722C12.1362 14.971 11.8613 14.971 11.6165 15.0722C11.4917 15.1175 11.3783 15.1896 11.2844 15.2835C11.1905 15.3774 11.1184 15.4907 11.0732 15.6156C11.0201 15.736 10.9927 15.8662 10.9927 15.9978C10.9927 16.1294 11.0201 16.2596 11.0732 16.38C11.1216 16.5036 11.1932 16.6167 11.2843 16.7133C11.3825 16.8022 11.4953 16.8736 11.6176 16.9244C11.738 16.9775 11.8682 17.0049 11.9998 17.0049C12.1314 17.0049 12.2616 16.9775 12.3821 16.9244C12.5044 16.8736 12.6171 16.8022 12.7154 16.7133C12.8064 16.6167 12.8781 16.5036 12.9265 16.38C12.9796 16.2596 13.007 16.1294 13.007 15.9978C13.007 15.8662 12.9796 15.736 12.9265 15.6156H12.9243Z" fill="black"/>
</svg>
