<svg width="30" height="30" viewBox="0 0 30 30" fill="none" xmlns="http://www.w3.org/2000/svg">
<path fill-rule="evenodd" clip-rule="evenodd" d="M23.3388 3.66117C20.9946 1.31696 17.8152 0 14.5 0C11.1848 0 8.00537 1.31696 5.66117 3.66117C3.31696 6.00537 2 9.18479 2 12.5C2 19.4 11.416 30 14.5 30C17.584 30 27 19.4 27 12.5C27 9.18479 25.683 6.00537 23.3388 3.66117ZM21.174 12.268C21.174 15.9551 18.1851 18.944 14.498 18.944C10.811 18.944 7.82202 15.9551 7.82202 12.268C7.82202 8.58096 10.811 5.59201 14.498 5.59201C18.1851 5.59201 21.174 8.58096 21.174 12.268Z" fill="black"/>
</svg>
