<svg width="24" height="24" viewBox="0 0 24 24" fill="none" xmlns="http://www.w3.org/2000/svg">
<path opacity="0.8" d="M19.8801 20.94C18.796 21.6807 17.502 22.0524 16.1901 22H7.8101C7.57282 22.0019 7.33566 21.9886 7.1001 21.96L14.0001 15.06L19.8801 20.94Z" fill="#8E8F90"/>
<path opacity="0.8" d="M22.0001 7.81001V16.19C22.0524 17.502 21.6808 18.7959 20.9401 19.88L15.0601 14L21.9601 7.10001C21.9886 7.33557 22.002 7.57273 22.0001 7.81001Z" fill="#8E8F90"/>
<path opacity="0.4" d="M15.06 14L20.94 19.88C20.6547 20.2953 20.2953 20.6547 19.88 20.94L14 15.06L7.1 21.96C6.50141 21.9252 5.91147 21.8004 5.35 21.59C3.21 20.81 2 18.91 2 16.19V7.81C2 4.17 4.17 2 7.81 2H16.19C18.91 2 20.81 3.21 21.59 5.35C21.8004 5.91147 21.9252 6.50141 21.96 7.1L15.06 14Z" fill="#8E8F90"/>
<path d="M15.0601 14L20.9401 19.88C20.6548 20.2953 20.2954 20.6547 19.8801 20.94L14.0001 15.06L7.1001 21.96C6.50151 21.9252 5.91157 21.8004 5.3501 21.59L5.7401 21.2L21.5901 5.35001C21.8005 5.91147 21.9253 6.50141 21.9601 7.10001L15.0601 14Z" fill="black"/>
<path d="M12.2401 7.93002C12.0725 7.23369 11.6716 6.61576 11.1039 6.17908C10.5362 5.74241 9.83609 5.51334 9.12008 5.53002C8.40456 5.5091 7.70367 5.73533 7.13541 6.17063C6.56715 6.60594 6.16621 7.22373 6.00008 7.92002C5.88261 8.72674 5.97869 9.55015 6.27873 10.3082C6.57877 11.0662 7.0723 11.7323 7.71008 12.24C8.08959 12.6026 8.59521 12.8034 9.12008 12.8C9.64407 12.7988 10.1481 12.5987 10.5301 12.24C11.167 11.7338 11.66 11.0694 11.9601 10.3131C12.2601 9.5569 12.3566 8.73521 12.2401 7.93002ZM9.15008 9.49002C8.88487 9.49002 8.63051 9.38466 8.44298 9.19712C8.25544 9.00959 8.15008 8.75523 8.15008 8.49002C8.15008 8.2248 8.25544 7.97045 8.44298 7.78291C8.63051 7.59537 8.88487 7.49002 9.15008 7.49002H9.16008C9.29141 7.49067 9.42131 7.51719 9.54239 7.56805C9.66346 7.61891 9.77333 7.69312 9.86573 7.78645C9.95812 7.87977 10.0312 7.99038 10.0809 8.11195C10.1305 8.23353 10.1557 8.3637 10.1551 8.49502C10.1544 8.62634 10.1279 8.75625 10.077 8.87732C10.0262 8.9984 9.95198 9.10827 9.85865 9.20066C9.76533 9.29305 9.65472 9.36616 9.53315 9.41581C9.41157 9.46546 9.2814 9.49067 9.15008 9.49002Z" fill="black"/>
</svg>
