<svg width="30" height="30" viewBox="0 0 30 30" fill="none" xmlns="http://www.w3.org/2000/svg">
<g clip-path="url(#clip0_603_260)">
<path d="M26.1879 27.1433C26.1879 27.5227 26.0403 27.8865 25.7775 28.1547C25.5148 28.423 25.1584 28.5736 24.7869 28.5736H5.19838C4.82681 28.5736 4.47046 28.423 4.20772 28.1547C3.94497 27.8865 3.79736 27.5227 3.79736 27.1433V1.4303C3.79736 1.05096 3.94497 0.687153 4.20772 0.418918C4.47046 0.150682 4.82681 -1.09246e-05 5.19838 -1.09246e-05H17.2167C17.4008 -0.000994483 17.5832 0.0350617 17.7537 0.106097C17.9241 0.177133 18.0791 0.281755 18.2099 0.413985L25.78 8.14244C25.9095 8.27596 26.012 8.43423 26.0816 8.60821C26.1512 8.78218 26.1865 8.96845 26.1855 9.15637L26.1879 27.1433Z" fill="#EBECF0"/>
<path d="M26.1879 27.1425V28.5728C26.1879 28.9522 26.0403 29.316 25.7775 29.5842C25.5148 29.8524 25.1584 30.0032 24.7869 30.0032H5.19838C4.82681 30.0032 4.47046 29.8524 4.20772 29.5842C3.94497 29.316 3.79736 28.9522 3.79736 28.5728V27.1425C3.79736 27.5219 3.94497 27.8857 4.20772 28.1539C4.47046 28.4221 4.82681 28.5728 5.19838 28.5728H24.7884C25.1597 28.5724 25.5157 28.4216 25.7781 28.1534C26.0405 27.8852 26.1879 27.5216 26.1879 27.1425Z" fill="#C1C7D0"/>
<path d="M0.999847 15.7143H28.9858V22.8572C28.9858 23.2365 28.8382 23.6003 28.5755 23.8686C28.3128 24.1368 27.9564 24.2875 27.5848 24.2875H2.3993C2.02773 24.2875 1.67138 24.1368 1.40864 23.8686C1.1459 23.6003 0.998291 23.2365 0.998291 22.8572L0.999847 15.7143Z" fill="#FF5630"/>
<path d="M3.79885 15.7144V12.8537L0.996826 15.7144H3.79885ZM26.1878 15.7144L26.2158 12.8537L29.0007 15.7144H26.1878Z" fill="#DE350B"/>
<path d="M7.99644 17.1431H10.4311C10.6515 17.1324 10.8717 17.1673 11.0785 17.2458C11.2853 17.3244 11.4744 17.4448 11.6344 17.6C11.9311 17.9261 12.096 18.3548 12.096 18.7999C12.096 19.245 11.9311 19.6735 11.6344 19.9997C11.4686 20.1599 11.2729 20.2842 11.0589 20.3652C10.8449 20.4462 10.617 20.4821 10.389 20.4709H8.98804V22.7141H7.99487L7.99644 17.1431ZM8.93043 19.5428H10.1898C10.4502 19.5637 10.7102 19.4985 10.9316 19.3569C11.0111 19.2839 11.0727 19.1929 11.1117 19.0912C11.1506 18.9895 11.1657 18.8799 11.1557 18.7712C11.1557 18.2855 10.8444 18.0426 10.2217 18.0426H8.93433L8.93043 19.5428ZM12.7785 17.2289H14.9898C15.3064 17.2155 15.6219 17.2754 15.9126 17.404C16.2034 17.5327 16.4618 17.7268 16.6687 17.9718C17.1113 18.5373 17.3354 19.249 17.2984 19.9719C17.3292 20.7027 17.1172 21.4226 16.6967 22.0148C16.4993 22.2849 16.2412 22.5024 15.9441 22.6492C15.647 22.7959 15.3197 22.8675 14.9898 22.858H12.7785V17.2289ZM13.7126 21.8861H14.9859C15.185 21.8934 15.383 21.8519 15.5631 21.7649C15.7432 21.6779 15.9003 21.5481 16.0211 21.3863C16.2905 20.9788 16.4185 20.4909 16.3846 20.0005C16.4324 19.491 16.2938 18.9815 15.9954 18.5702C15.8611 18.4143 15.6952 18.2901 15.5092 18.2063C15.3232 18.1224 15.1215 18.0809 14.9182 18.0847H13.7203L13.7126 21.8861ZM21.9824 18.1292H19.0909V19.461H21.9871V20.3756H19.0909V22.7753H18.1569V17.2042H21.991L21.9824 18.1292Z" fill="white"/>
<path d="M26.1877 9.15716V9.35741H18.6176C18.246 9.35741 17.8897 9.20671 17.6269 8.93848C17.3642 8.67024 17.2166 8.30644 17.2166 7.9271V-1.09246e-05C17.4006 -0.000994483 17.5831 0.0350617 17.7535 0.106097C17.9239 0.177133 18.0789 0.281755 18.2097 0.413985L25.7939 8.14244C26.0495 8.4148 26.1894 8.77922 26.183 9.15637L26.1877 9.15716Z" fill="#C1C7D0"/>
</g>
<defs>
<clipPath id="clip0_603_260">
<rect width="28" height="30" fill="white" transform="translate(1)"/>
</clipPath>
</defs>
</svg>
