<svg width="24" height="24" viewBox="0 0 24 24" fill="none" xmlns="http://www.w3.org/2000/svg">
<path opacity="0.4" d="M20.75 21.9938H2.75C2.55109 21.9938 2.36032 21.9148 2.21967 21.7741C2.07902 21.6335 2 21.4427 2 21.2438C2 21.0449 2.07902 20.8541 2.21967 20.7135C2.36032 20.5728 2.55109 20.4938 2.75 20.4938H20.75C20.9489 20.4938 21.1397 20.5728 21.2803 20.7135C21.421 20.8541 21.5 21.0449 21.5 21.2438C21.5 21.4427 21.421 21.6335 21.2803 21.7741C21.1397 21.9148 20.9489 21.9938 20.75 21.9938Z" fill="#8E8F90"/>
<path opacity="0.4" d="M18.7701 3.47381C16.8301 1.53381 14.9301 1.48381 12.9401 3.47381L11.7301 4.68381C11.6802 4.7361 11.6447 4.80046 11.6272 4.87059C11.6097 4.94071 11.6107 5.01419 11.6301 5.08381C12.0125 6.39619 12.7198 7.59093 13.6864 8.55753C14.653 9.52412 15.8477 10.2314 17.1601 10.6138C17.1991 10.6253 17.2394 10.6321 17.2801 10.6338C17.334 10.6344 17.3875 10.6241 17.4374 10.6034C17.4872 10.5828 17.5323 10.5523 17.5701 10.5138L18.7701 9.30381C19.1973 8.94606 19.5477 8.50562 19.8003 8.00898C20.0529 7.51234 20.2025 6.96974 20.2401 6.41381C20.2101 5.84907 20.0641 5.29657 19.8112 4.79074C19.5583 4.28491 19.2039 3.83662 18.7701 3.47381Z" fill="#8E8F90"/>
<path d="M15.3601 11.5238C15.0701 11.3838 14.7901 11.2438 14.5201 11.0838C14.3001 10.9538 14.0901 10.8138 13.8801 10.6638C13.6852 10.5315 13.4982 10.388 13.3201 10.2338C13.2589 10.1892 13.202 10.139 13.1501 10.0838C12.7774 9.76759 12.4327 9.41962 12.1201 9.04382C12.0644 8.98878 12.0142 8.9285 11.9701 8.86382C11.8193 8.68899 11.6791 8.50533 11.5501 8.31382C11.4076 8.12574 11.2773 7.92867 11.1601 7.72382C11.0001 7.45382 10.8601 7.18382 10.7201 6.90382C10.5801 6.60382 10.4701 6.31382 10.3701 6.04382L4.09012 12.3238C3.95043 12.4796 3.8539 12.6692 3.81012 12.8738L3.27012 16.7038C3.21439 17.0151 3.23144 17.335 3.31991 17.6386C3.40839 17.9422 3.56589 18.2212 3.78012 18.4538C4.1585 18.8095 4.66088 19.0033 5.18011 18.9938C5.30074 18.9938 5.42115 18.9837 5.54012 18.9638L9.38012 18.4238C9.58618 18.3842 9.77684 18.2871 9.93012 18.1438L16.2101 11.8638C15.9301 11.7638 15.6601 11.6538 15.3601 11.5238Z" fill="black"/>
</svg>
