<svg width="30" height="30" viewBox="0 0 30 30" fill="none" xmlns="http://www.w3.org/2000/svg">
<path fill-rule="evenodd" clip-rule="evenodd" d="M23.3388 3.66117C20.9946 1.31696 17.8152 0 14.5 0C11.1848 0 8.00537 1.31696 5.66117 3.66117C3.31696 6.00537 2 9.18479 2 12.5C2 19.4 11.416 30 14.5 30C17.584 30 27 19.4 27 12.5C27 9.18479 25.683 6.00537 23.3388 3.66117ZM24.174 12.268C24.174 17.6119 19.8419 21.944 14.498 21.944C9.15411 21.944 4.82202 17.6119 4.82202 12.268C4.82202 6.9241 9.15411 2.59201 14.498 2.59201C19.8419 2.59201 24.174 6.9241 24.174 12.268Z" fill="black"/>
<path d="M9.82201 13.98C9.82201 12.6539 10.3488 11.3821 11.2865 10.4445C12.2242 9.50678 13.4959 8.98 14.822 8.98C16.1481 8.98 17.4199 9.50678 18.3575 10.4445C19.2952 11.3821 19.822 12.6539 19.822 13.98C19.829 14.007 14.822 13.98 14.822 13.98C14.822 13.98 9.81001 14.025 9.82201 13.98Z" fill="black"/>
<path d="M14.822 9C15.3743 9 15.822 8.55228 15.822 8C15.822 7.44772 15.3743 7 14.822 7C14.2697 7 13.822 7.44772 13.822 8C13.822 8.55228 14.2697 9 14.822 9Z" fill="black"/>
<path d="M7.82202 15H21.822L20.3 17H9.34402L7.82202 15Z" fill="black"/>
</svg>
