<svg width="24" height="24" viewBox="0 0 24 24" fill="none" xmlns="http://www.w3.org/2000/svg">
<path fill-rule="evenodd" clip-rule="evenodd" d="M3 9.01887C3 6.19087 3 4.77587 3.879 3.89787C4.758 3.01987 6.172 3.01887 9 3.01887H15.343C15.8792 2.96821 16.4201 3.01979 16.937 3.17087C17.4094 3.42933 17.8285 3.77511 18.172 4.18987L19.829 5.84687C20.2437 6.19036 20.5895 6.60945 20.848 7.08187C20.9991 7.5988 21.0506 8.13971 21 8.67587V15.0189C21 17.8469 21 19.2619 20.121 20.1399C19.48 20.7809 18.553 20.9549 17 21.0009V17.9569C17.0142 17.3834 16.9928 16.8097 16.936 16.2389C16.9021 15.6779 16.6639 15.1487 16.2665 14.7513C15.8691 14.3539 15.34 14.1158 14.779 14.0819C14.2085 14.0254 13.6351 14.0044 13.062 14.0189H9.938C9.36456 14.0047 8.79079 14.0261 8.22 14.0829C7.66244 14.1309 7.13758 14.3663 6.731 14.7509C6.34646 15.1575 6.111 15.6823 6.063 16.2399C6.00656 16.8104 5.98552 17.3838 6 17.9569V20.9429C5.21978 20.94 4.46675 20.656 3.879 20.1429C3 19.2619 3 17.8469 3 15.0189V9.01887ZM7 7.01887C6.73478 7.01887 6.48043 7.12423 6.29289 7.31177C6.10536 7.4993 6 7.75366 6 8.01887C6 8.28409 6.10536 8.53844 6.29289 8.72598C6.48043 8.91351 6.73478 9.01887 7 9.01887H12C12.2652 9.01887 12.5196 8.91351 12.7071 8.72598C12.8946 8.53844 13 8.28409 13 8.01887C13 7.75366 12.8946 7.4993 12.7071 7.31177C12.5196 7.12423 12.2652 7.01887 12 7.01887H7Z" fill="black"/>
<path opacity="0.4" d="M10 16.0189H13C13.5304 16.0189 14.0391 16.2296 14.4142 16.6046C14.7893 16.9797 15 17.4884 15 18.0189V21.0189H8V18.0189C8 17.4884 8.21071 16.9797 8.58579 16.6046C8.96086 16.2296 9.46957 16.0189 10 16.0189Z" fill="#8E8F90"/>
</svg>
