<svg width="25" height="24" viewBox="0 0 25 24" fill="none" xmlns="http://www.w3.org/2000/svg">
<path d="M21.091 8.70199C19.2819 8.70199 18.5422 7.41371 19.4418 5.83355C19.9615 4.91766 19.6517 3.75015 18.7421 3.22679L17.013 2.23038C16.2234 1.75734 15.2039 2.03915 14.7341 2.83426L14.6242 3.02549C13.7246 4.60565 12.2454 4.60565 11.3358 3.02549L11.2259 2.83426C10.7761 2.03915 9.75663 1.75734 8.96702 2.23038L7.23788 3.22679C6.32834 3.75015 6.01849 4.92772 6.53823 5.84361C7.44778 7.41371 6.70816 8.70199 4.89906 8.70199C3.85958 8.70199 3 9.55753 3 10.6143V12.3857C3 13.4324 3.84959 14.298 4.89906 14.298C6.70816 14.298 7.44778 15.5863 6.53823 17.1665C6.01849 18.0823 6.32834 19.2498 7.23788 19.7732L8.96702 20.7696C9.75663 21.2427 10.7761 20.9608 11.2459 20.1657L11.3558 19.9745C12.2554 18.3943 13.7346 18.3943 14.6442 19.9745L14.7541 20.1657C15.2239 20.9608 16.2434 21.2427 17.033 20.7696L18.7621 19.7732C19.6717 19.2498 19.9815 18.0723 19.4618 17.1665C18.5522 15.5863 19.2919 14.298 21.1009 14.298C22.1404 14.298 23 13.4425 23 12.3857V10.6143C22.99 9.5676 22.1404 8.70199 21.091 8.70199ZM12.995 14.7711C11.2059 14.7711 9.74663 13.3016 9.74663 11.5C9.74663 9.69844 11.2059 8.22895 12.995 8.22895C14.7841 8.22895 16.2434 9.69844 16.2434 11.5C16.2434 13.3016 14.7841 14.7711 12.995 14.7711Z" fill="#171717"/>
</svg>
