<svg width="24" height="24" viewBox="0 0 24 24" fill="none" xmlns="http://www.w3.org/2000/svg">
<path fill-rule="evenodd" clip-rule="evenodd" d="M11 18.7286H7C4 18.7286 2 16.6375 2 13.5009V7.22768C2 4.09107 4 2 7 2H17C20 2 22 4.09107 22 7.22768V13.5009C22 16.6375 20 18.7286 17 18.7286V20.9555C17 21.792 16.11 22.2835 15.45 21.8234L11 18.7286ZM8.5 11.2217H15.5C15.91 11.2217 16.25 10.8662 16.25 10.4376C16.25 10.0089 15.91 9.6534 15.5 9.6534H8.5C8.09 9.6534 7.75 10.0089 7.75 10.4376C7.75 10.8662 8.09 11.2217 8.5 11.2217Z" fill="black"/>
</svg>
