<svg width="24" height="24" viewBox="0 0 24 24" fill="none" xmlns="http://www.w3.org/2000/svg">
<path d="M12 22C13.9778 22 15.9112 21.4135 17.5557 20.3147C19.2002 19.2159 20.4819 17.6541 21.2388 15.8268C21.9957 13.9996 22.1937 11.9889 21.8079 10.0491C21.422 8.10929 20.4696 6.32746 19.0711 4.92894C17.6725 3.53041 15.8907 2.578 13.9509 2.19215C12.0111 1.8063 10.0004 2.00433 8.17317 2.76121C6.3459 3.51809 4.78412 4.79981 3.6853 6.4443C2.58649 8.08879 2 10.0222 2 12C2 14.6522 3.05357 17.1957 4.92893 19.0711C5.85752 19.9997 6.95991 20.7363 8.17317 21.2388C9.38642 21.7413 10.6868 22 12 22Z" fill="#1BA671"/>
<path d="M10.5799 15.58C10.4814 15.58 10.3839 15.5605 10.293 15.5228C10.2021 15.485 10.1195 15.4297 10.0499 15.36L7.21991 12.53C7.14622 12.4613 7.08712 12.3785 7.04613 12.2865C7.00514 12.1945 6.98309 12.0952 6.98132 11.9945C6.97954 11.8938 6.99807 11.7938 7.03579 11.7004C7.07351 11.607 7.12965 11.5222 7.20087 11.451C7.27209 11.3797 7.35692 11.3236 7.45031 11.2859C7.5437 11.2482 7.64373 11.2296 7.74443 11.2314C7.84513 11.2332 7.94445 11.2552 8.03645 11.2962C8.12845 11.3372 8.21125 11.3963 8.27991 11.47L10.5799 13.77L15.7199 8.63C15.8621 8.49752 16.0501 8.4254 16.2444 8.42883C16.4387 8.43226 16.6241 8.51097 16.7615 8.64838C16.8989 8.78579 16.9777 8.97118 16.9811 9.16548C16.9845 9.35978 16.9124 9.54783 16.7799 9.69L11.1099 15.36C11.0404 15.4297 10.9578 15.485 10.8668 15.5228C10.7759 15.5605 10.6784 15.58 10.5799 15.58Z" fill="white"/>
</svg>
