<svg width="30" height="30" viewBox="0 0 30 30" fill="none" xmlns="http://www.w3.org/2000/svg">
<g clip-path="url(#clip0_603_257)">
<path d="M29.4213 16.7474C28.9857 15.6283 28.9857 14.3866 29.4213 13.2675L29.6763 12.5776C30.1235 11.4088 30.1068 10.1134 29.6297 8.95647C29.1527 7.79955 28.2513 6.8686 27.1101 6.35414L26.4349 6.00923C25.361 5.51428 24.4989 4.65257 24.0037 3.57906L23.7036 2.90423C23.189 1.76353 22.2576 0.862564 21.1002 0.385716C19.9427 -0.0911328 18.6467 -0.107812 17.4774 0.339098L16.7872 0.594039C15.6674 1.02963 14.4249 1.02963 13.305 0.594039L12.6149 0.339098C11.4398 -0.121881 10.1323 -0.112542 8.96392 0.365173C7.79558 0.842887 6.85632 1.75224 6.34137 2.90423L5.9963 3.57906C5.50113 4.65257 4.63904 5.51428 3.56506 6.00923L2.88992 6.30916C1.74871 6.82361 0.847347 7.75455 0.370287 8.91148C-0.106774 10.0684 -0.123455 11.3638 0.323654 12.5326L0.578703 13.2225C1.01448 14.3418 1.01448 15.5838 0.578703 16.7031L0.323654 17.393C-0.123455 18.5618 -0.106774 19.8572 0.370287 21.0141C0.847347 22.1711 1.74871 23.102 2.88992 23.6165L3.56506 23.9164C4.65471 24.4335 5.51888 25.3293 5.9963 26.4365L6.29636 27.1114C6.81104 28.2521 7.7424 29.153 8.89984 29.6299C10.0573 30.1067 11.3533 30.1234 12.5226 29.6765L13.2128 29.4216C14.3326 28.986 15.5751 28.986 16.695 29.4216L17.3851 29.6765C18.5544 30.1234 19.8504 30.1067 21.0079 29.6299C22.1653 29.153 23.0967 28.2521 23.6114 27.1114L23.9114 26.4365C24.4288 25.3474 25.325 24.4836 26.4327 24.0064L27.1078 23.7064C28.249 23.192 29.1504 22.261 29.6275 21.1041C30.1045 19.9472 30.1212 18.6518 29.6741 17.4829L29.4213 16.7474ZM21.5274 11.6021L13.0912 20.0331C13.0239 20.1048 12.9425 20.162 12.8522 20.2011C12.7619 20.2401 12.6645 20.2603 12.5661 20.2603C12.4677 20.2603 12.3703 20.2401 12.28 20.2011C12.1897 20.162 12.1084 20.1048 12.041 20.0331L8.4688 16.5089C8.39849 16.4392 8.34268 16.3563 8.3046 16.2649C8.26652 16.1736 8.2469 16.0755 8.2469 15.9766C8.2469 15.8776 8.26652 15.7796 8.3046 15.6882C8.34268 15.5968 8.39849 15.5139 8.4688 15.4442L9.26396 14.6494C9.33131 14.5777 9.41266 14.5205 9.50297 14.4814C9.59329 14.4423 9.69065 14.4222 9.78907 14.4222C9.88748 14.4222 9.98486 14.4423 10.0752 14.4814C10.1655 14.5205 10.2468 14.5777 10.3142 14.6494L12.5646 16.8846L19.6783 9.77406C19.8185 9.63668 20.0071 9.55972 20.2034 9.55972C20.3998 9.55972 20.5883 9.63668 20.7285 9.77406L21.5237 10.5689C21.6565 10.7081 21.7306 10.8929 21.7309 11.0852C21.7312 11.2775 21.6576 11.4626 21.5252 11.6021H21.5274Z" fill="black"/>
</g>
<defs>
<clipPath id="clip0_603_257">
<rect width="30" height="30" fill="white"/>
</clipPath>
</defs>
</svg>
