<svg width="24" height="24" viewBox="0 0 24 24" fill="none" xmlns="http://www.w3.org/2000/svg">
<path opacity="0.4" d="M12 22C13.9778 22 15.9112 21.4135 17.5557 20.3147C19.2002 19.2159 20.4819 17.6541 21.2388 15.8268C21.9957 13.9996 22.1937 11.9889 21.8079 10.0491C21.422 8.10929 20.4696 6.32746 19.0711 4.92894C17.6725 3.53041 15.8907 2.578 13.9509 2.19215C12.0111 1.8063 10.0004 2.00433 8.17317 2.76121C6.3459 3.51809 4.78412 4.79981 3.6853 6.4443C2.58649 8.08879 2 10.0222 2 12C2 14.6522 3.05357 17.1957 4.92893 19.0711C5.85752 19.9997 6.95991 20.7363 8.17317 21.2388C9.38642 21.7413 10.6868 22 12 22Z" fill="#8E8F90"/>
<path d="M15.7099 15.93C15.575 15.9324 15.4426 15.8941 15.3299 15.82L12.2299 13.97C11.8339 13.7127 11.5055 13.364 11.2723 12.9533C11.0391 12.5426 10.908 12.0819 10.8899 11.61V7.51001C10.8899 7.3111 10.9689 7.12033 11.1096 6.97968C11.2502 6.83903 11.441 6.76001 11.6399 6.76001C11.8388 6.76001 12.0296 6.83903 12.1702 6.97968C12.3109 7.12033 12.3899 7.3111 12.3899 7.51001V11.61C12.4087 11.8217 12.4729 12.0269 12.5781 12.2116C12.6834 12.3962 12.8273 12.556 12.9999 12.68L16.0999 14.53C16.1848 14.5804 16.2589 14.647 16.318 14.7261C16.3771 14.8052 16.4199 14.8952 16.4441 14.9909C16.4682 15.0867 16.4732 15.1862 16.4588 15.2839C16.4444 15.3815 16.4107 15.4754 16.3599 15.56C16.2919 15.6718 16.1966 15.7645 16.0828 15.8292C15.9691 15.894 15.8408 15.9287 15.7099 15.93Z" fill="black"/>
</svg>
