<svg width="24" height="24" viewBox="0 0 24 24" fill="none" xmlns="http://www.w3.org/2000/svg">
<path opacity="0.4" d="M13 11.6V8.00007C13.0033 7.86797 12.9794 7.73664 12.93 7.6141C12.8805 7.49157 12.8065 7.3804 12.7125 7.28757C12.6197 7.19354 12.5085 7.11951 12.386 7.07006C12.2635 7.02062 12.1321 6.99683 12 7.0001C11.8679 6.99683 11.7365 7.02062 11.614 7.07006C11.4915 7.11951 11.3803 7.19354 11.2875 7.28757C11.1935 7.3804 11.1195 7.49157 11.07 7.6141C11.0206 7.73664 10.9967 7.86797 11 8.00007V11.975C10.9999 12.1078 11.0254 12.2393 11.075 12.3625C11.1262 12.4892 11.2028 12.604 11.3 12.7L14.6 15.9999C14.6917 16.0911 14.8011 16.1625 14.9215 16.2098C15.0419 16.2571 15.1707 16.2793 15.2999 16.2749C15.4292 16.2793 15.558 16.2571 15.6784 16.2098C15.7988 16.1625 15.9082 16.0911 15.9999 15.9999C16.091 15.9082 16.1624 15.7987 16.2097 15.6784C16.257 15.558 16.2792 15.4292 16.2749 15.3C16.2793 15.1707 16.2571 15.0418 16.2098 14.9215C16.1626 14.8011 16.0911 14.6917 15.9999 14.6L13 11.6ZM12 21.9998C10.6597 22.0085 9.33201 21.7404 8.10008 21.2123C6.9152 20.7087 5.83755 19.9832 4.92514 19.0748C4.01683 18.1624 3.29133 17.0848 2.78769 15.8999C2.25961 14.668 1.99153 13.3403 2.00021 12C1.99149 10.6597 2.25958 9.33201 2.78769 8.10009C3.29124 6.91518 4.01676 5.83754 4.92514 4.92518C5.83755 4.01684 6.9152 3.29131 8.10008 2.78769C9.33201 2.25962 10.6597 1.99152 12 2.0002C13.3403 1.99152 14.668 2.25962 15.8999 2.78769C17.0848 3.29131 18.1625 4.01684 19.0749 4.92518C19.9832 5.83754 20.7088 6.91518 21.2123 8.10009C21.7404 9.33201 22.0085 10.6597 21.9998 12C22.0085 13.3403 21.7404 14.668 21.2123 15.8999C20.7087 17.0848 19.9832 18.1624 19.0749 19.0748C18.1625 19.9832 17.0848 20.7087 15.8999 21.2123C14.668 21.7404 13.3403 22.0085 12 21.9998ZM12 19.9999C13.0534 20.0177 14.0993 19.8195 15.0732 19.4175C16.0471 19.0154 16.9283 18.4181 17.6624 17.6624C18.4182 16.9284 19.0155 16.0472 19.4175 15.0733C19.8196 14.0994 20.0177 13.0534 19.9998 12C20.0177 10.9466 19.8196 9.9006 19.4175 8.92671C19.0155 7.95283 18.4182 7.07165 17.6624 6.33758C16.9283 5.5818 16.0472 4.98449 15.0733 4.58247C14.0994 4.18045 13.0534 3.98224 12 4.00013C10.9466 3.98224 9.90062 4.18045 8.92673 4.58247C7.95285 4.98449 7.07169 5.5818 6.33762 6.33758C5.58184 7.07165 4.9845 7.95283 4.58247 8.92671C4.18045 9.9006 3.98227 10.9466 4.00016 12C3.98227 13.0534 4.18045 14.0994 4.58247 15.0733C4.9845 16.0472 5.58184 16.9284 6.33762 17.6624C7.07173 18.4181 7.95291 19.0154 8.92678 19.4175C9.90065 19.8195 10.9466 20.0177 12 19.9999Z" fill="#8E8F90"/>
</svg>
