<svg width="30" height="30" viewBox="0 0 30 30" fill="none" xmlns="http://www.w3.org/2000/svg">
<g clip-path="url(#clip0_603_261)">
<g opacity="0.38">
<path d="M14.9998 5.65279e-06C13.0466 -0.0040947 11.1706 0.731788 9.77923 2.04781C8.3879 3.36383 7.59363 5.1537 7.56895 7.02864C7.54427 8.90357 8.29118 10.7121 9.64743 12.0615C11.0037 13.4108 12.8597 14.192 14.8124 14.2353C14.9265 14.2202 15.0422 14.2202 15.1563 14.2353H15.2654C17.2124 14.1743 19.0561 13.3803 20.3983 12.025C21.7405 10.6697 22.4733 8.86178 22.4385 6.99201C22.4036 5.12225 21.6038 3.34073 20.2119 2.03242C18.82 0.724103 16.9478 -0.00595132 14.9998 5.65279e-06Z" fill="#8E8F90"/>
<path opacity="0.4" d="M22.9377 18.24C18.5783 15.45 11.469 15.45 7.07822 18.24C5.09385 19.5001 4 21.2252 4 23.0718C4 24.9185 5.09385 26.6249 7.06227 27.885C9.43798 29.3151 12.1961 30.05 14.9998 30C17.8036 30.0501 20.5619 29.3152 22.9377 27.885C24.9067 26.6101 26.0005 24.8998 26.0005 23.0398C25.9846 21.2099 24.9067 19.4848 22.9377 18.24Z" fill="#8E8F90"/>
</g>
</g>
<defs>
<clipPath id="clip0_603_261">
<rect width="22" height="30" fill="white" transform="translate(4)"/>
</clipPath>
</defs>
</svg>
