<svg width="24" height="24" viewBox="0 0 24 24" fill="none" xmlns="http://www.w3.org/2000/svg">
<path d="M12.0918 12.462C14.9808 12.462 17.3228 10.12 17.3228 7.231C17.3228 4.342 14.9808 2 12.0918 2C9.20284 2 6.86084 4.342 6.86084 7.231C6.86084 10.12 9.20284 12.462 12.0918 12.462Z" fill="black"/>
<path opacity="0.4" d="M3.37877 19.422C4.24277 15.771 7.86977 13.771 11.6238 13.771H12.5588C16.3138 13.771 19.9398 15.771 20.8048 19.422C20.9783 20.1462 21.1036 20.8812 21.1798 21.622C21.1932 21.7914 21.1708 21.9617 21.114 22.1219C21.0573 22.282 20.9675 22.4285 20.8504 22.5516C20.7334 22.6748 20.5917 22.772 20.4346 22.8368C20.2776 22.9017 20.1086 22.9327 19.9388 22.928H4.24477C4.07491 22.9327 3.90596 22.9017 3.7489 22.8368C3.59183 22.772 3.45017 22.6748 3.33313 22.5516C3.21608 22.4285 3.12626 22.282 3.06952 22.1219C3.01278 21.9617 2.99037 21.7914 3.00377 21.622C3.07991 20.8812 3.20519 20.1462 3.37877 19.422Z" fill="#8E8F90"/>
</svg>
