<svg xmlns="http://www.w3.org/2000/svg" width="26.499" height="25" viewBox="0 0 26.499 25">
  <path id="setting-2" d="M25.985,11.38c-2.4,0-3.377-1.7-2.185-3.774a2.512,2.512,0,0,0-.927-3.43L20.582,2.864a2.21,2.21,0,0,0-3.019.795l-.146.252c-1.192,2.079-3.152,2.079-4.357,0l-.146-.252a2.173,2.173,0,0,0-2.993-.795L7.631,4.175A2.527,2.527,0,0,0,6.7,7.619c1.205,2.066.225,3.761-2.172,3.761A2.524,2.524,0,0,0,2.016,13.9v2.331a2.524,2.524,0,0,0,2.516,2.516c2.4,0,3.377,1.7,2.172,3.774a2.512,2.512,0,0,0,.927,3.43l2.291,1.311a2.21,2.21,0,0,0,3.019-.795l.146-.252c1.192-2.079,3.152-2.079,4.357,0l.146.252a2.21,2.21,0,0,0,3.019.795L22.9,25.947a2.515,2.515,0,0,0,.927-3.43C22.622,20.438,23.6,18.743,26,18.743a2.524,2.524,0,0,0,2.516-2.516V13.9A2.544,2.544,0,0,0,25.985,11.38ZM15.259,19.365a4.3,4.3,0,1,1,4.3-4.3A4.312,4.312,0,0,1,15.259,19.365Z" transform="translate(-2.016 -2.561)" fill="#6b6b6b"/>
</svg>
