<svg id="Group_852" data-name="Group 852" xmlns="http://www.w3.org/2000/svg" width="29.319" height="25" viewBox="0 0 29.319 25">
  <path id="Path_1251" data-name="Path 1251" d="M24.81,13.868a2.953,2.953,0,0,0-.882,2.4,3.136,3.136,0,0,0,3.176,2.75h2.882v2.132A6.947,6.947,0,0,1,22.633,28.5H9.4a6.947,6.947,0,0,1-7.353-7.353V10.853c0-4,2.412-6.794,6.162-7.265A7.827,7.827,0,0,1,9.4,3.5H22.633a6.725,6.725,0,0,1,1.1.074c3.794.441,6.25,3.25,6.25,7.279v2.132H26.927A2.931,2.931,0,0,0,24.81,13.868Z" transform="translate(-2.045 -3.5)" fill="#6b6b6b"/>
  <path id="Path_1252" data-name="Path 1252" d="M24.62,11.482v3.094a1.542,1.542,0,0,1-1.5,1.532H20.174A3.2,3.2,0,0,1,16.93,13.3a3.095,3.095,0,0,1,3.064-3.35h3.124A1.542,1.542,0,0,1,24.62,11.482Z" transform="translate(4.699 -0.529)" fill="#fff"/>
</svg>
